<svg
        width="620"
        height="366"
        viewBox="65 0 620 366"
        xmlns="http://www.w3.org/2000/svg"
      >
        <!-- 中心logo -->
        <!-- logo 1125 -->
        <!-- <g
          fill="none"
          fill-rule="evenodd"
          width="116"
          height="106"
          viewBox="0 0 116 106"
          transform="translate(317 135)"
        >
          <path
            d="M78.19 46.086c13.033 26.764 15.722 51.986 5.844 57.028-10.185 5.2-29.874-13.021-43.976-40.699C25.955 34.738 22.78 8.085 32.966 2.886 37.401.621 43.64 2.799 50.431 8.262"
            stroke="#EED9B7"
            stroke-width="3.5"
            stroke-linecap="round"
          />
          <path
            d="M13.776 64.477C6.18 60.537 1.756 55.792 2.01 50.889c.593-11.372 26.141-19.287 57.063-17.682 30.922 1.606 55.509 12.126 54.917 23.498-.257 4.904-5.15 9.163-13.114 12.295"
            stroke="#EED9B7"
            stroke-width="3.5"
            stroke-linecap="round"
          />
          <path
            d="M45.826 94.462c-8.28 6.011-15.649 8.206-20.258 5.198-9.541-6.225-3.652-32.386 13.156-58.433C55.53 15.182 76.89-.887 86.432 5.34c4.436 2.893 5.536 10.094 3.756 19.587"
            stroke="#EED9B7"
            stroke-width="3.5"
            stroke-linecap="round"
          />
          <path
            d="M66.84 51.522a6.998 6.998 0 1 1-13.682 2.956 6.998 6.998 0 0 1 13.683-2.956"
            fill="#EED9B7"
          />
        </g> -->

        <!-- 外围圈 -->
        <!-- sides 8f3 -->
        <g
          stroke-width="2"
          stroke="#659CC8"
          fill="none"
          fill-rule="evenodd"
          width="490"
          height="230"
          viewBox="0 0 490 230"
          transform="translate(130 68)"
        >
          <path
            d="M58.933.562C37.441 34.543 25 74.82 25 118c0 35.607 8.46 69.239 23.478 98.994m386.537 11.956C454.075 196.377 465 158.464 465 118c0-42.9-12.28-82.934-33.516-116.775"
            opacity=".164"
            stroke-dasharray="31,7,8"
          />
          <path
            d="M467.113 194.948C475.463 170.84 480 144.95 480 118c0-22-3.023-43.293-8.676-63.488M27.826 28.06C16.34 55.764 10 86.141 10 118c0 22.158 3.067 43.599 8.798 63.923"
            opacity=".12"
            stroke-dasharray="3,8,34"
          />
          <path
            d="M5.892 69.144A245.116 245.116 0 0 0 1 118c0 13.187 1.046 26.13 3.06 38.749m484.11-18.487c.55-6.681.83-13.439.83-20.262 0-12.898-1-25.562-2.929-37.92"
            opacity=".08"
            stroke-dasharray="2,6,8"
          />
        </g>

        <!--旋转的10个圈-->
        <g id="circle" transform="translate(192 0)">
          <svg
            width="366"
            height="366"
            viewBox="0 0 366 366"
            xmlns="http://www.w3.org/2000/svg"
          >
            <style>
              @keyframes hero-logo-circle {
                to {
                  transform: rotate(1turn);
                }
              }

              .hero-logo-circle1 {
                animation: hero-logo-circle 30s linear infinite;
                transform-origin: 50%;
              }

              .hero-logo-circle2 {
                animation: hero-logo-circle 40s linear infinite;
                transform-origin: 50%;
              }

              .hero-logo-circle3 {
                animation: hero-logo-circle 50s linear infinite;
                transform-origin: 50%;
              }

              .hero-logo-circle4 {
                animation: hero-logo-circle 60s linear infinite;
                transform-origin: 50%;
              }

              .hero-logo-circle5 {
                animation: hero-logo-circle 70s linear infinite;
                transform-origin: 50%;
              }

              .hero-logo-circle6 {
                animation: hero-logo-circle 80s linear infinite;
                transform-origin: 50%;
              }

              .hero-logo-circle7 {
                animation: hero-logo-circle 90s linear infinite;
                transform-origin: 50%;
              }

              .hero-logo-circle8 {
                animation: hero-logo-circle 100s linear infinite;
                transform-origin: 50%;
              }

              .hero-logo-circle9 {
                animation: hero-logo-circle 110s linear infinite;
                transform-origin: 50%;
              }

              .hero-logo-circle10 {
                animation: hero-logo-circle 120s linear infinite;
                transform-origin: 50%;
              }
            </style>

            <!-- red 5aec -->
            <g width="366" height="366" viewBox="0 0 366 366">
              <circle
                class="hero-logo-circle1"
                stroke="#C13F21"
                stroke-width="2"
                cx="183"
                cy="183"
                r="130"
                fill="none"
                fill-rule="evenodd"
                opacity=".278"
                stroke-dasharray="35,7,10,80"
              />
            </g>

            <!-- red 2f7 -->
            <g width="366" height="366" viewBox="0 0 366 366">
              <circle
                class="hero-logo-circle2"
                stroke="#C13F21"
                stroke-width="2"
                cx="183"
                cy="183"
                r="130"
                fill="none"
                fill-rule="evenodd"
                stroke-dasharray="35,7,10,80"
              />
            </g>

            <!-- orange d9d1 -->
            <g width="366" height="366" viewBox="0 0 366 366">
              <path
                class="hero-logo-circle3"
                d="M251.346 306.299c68.096-37.746 92.7-123.549 54.953-191.645-37.746-68.096-123.549-92.7-191.645-54.953-68.096 37.746-92.7 123.549-54.953 191.645 37.746 68.096 123.549 92.7 191.645 54.953z"
                stroke="#D36E2D"
                stroke-width="4"
                fill="none"
                fill-rule="evenodd"
                stroke-dasharray="140,4,10,80"
                opacity=".441"
              />
            </g>

            <!-- orange 2351 -->
            <g width="366" height="366" viewBox="0 0 366 366">
              <circle
                class="hero-logo-circle4"
                stroke="#D36E2D"
                stroke-width="4"
                cx="183"
                cy="183"
                r="141"
                fill="none"
                fill-rule="evenodd"
                stroke-dasharray="51,4,10,80"
              />
            </g>

            <!-- yellow af7 -->
            <g width="366" height="366" viewBox="0 0 366 366">
              <path
                class="hero-logo-circle5"
                d="M92.733 302.788c66.157 49.854 160.202 36.636 210.055-29.52 49.854-66.158 36.636-160.203-29.52-210.056-66.158-49.854-160.203-36.636-210.056 29.52-49.854 66.158-36.636 160.203 29.52 210.056z"
                stroke="#DDA032"
                stroke-width="8"
                fill="none"
                fill-rule="evenodd"
                stroke-dasharray="56,2,4"
                opacity=".688"
              />
            </g>

            <!-- yellow bf8 -->
            <g width="366" height="366" viewBox="0 0 366 366">
              <circle
                class="hero-logo-circle6"
                stroke="#DDA032"
                stroke-width="8"
                cx="183"
                cy="183"
                r="150"
                fill="none"
                fill-rule="evenodd"
                stroke-dasharray="76,2,40,180"
              />
            </g>

            <!-- green 6b12 -->
            <g width="366" height="366" viewBox="0 0 366 366">
              <circle
                class="hero-logo-circle7"
                stroke="#78AF9F"
                stroke-width="4"
                cx="183"
                cy="183"
                r="159"
                fill="none"
                fill-rule="evenodd"
                opacity=".278"
                stroke-dasharray="46,2,12"
              />
            </g>

            <!-- green 8a75 -->
            <g width="366" height="366" viewBox="0 0 366 366">
              <circle
                class="hero-logo-circle8"
                stroke="#78AF9F"
                stroke-width="4"
                cx="183"
                cy="183"
                r="159"
                fill="none"
                fill-rule="evenodd"
                stroke-dasharray="76,4,70"
              />
            </g>

            <!-- blue 930 -->
            <g width="366" height="366" viewBox="0 0 366 366">
              <path
                class="hero-logo-circle9"
                d="M18.997 106.524c-42.236 90.576-3.049 198.242 87.527 240.479 90.576 42.236 198.242 3.049 240.479-87.527 42.236-90.576 3.049-198.242-87.527-240.479C168.9-23.239 61.234 15.948 18.997 106.524z"
                stroke="#659CC8"
                stroke-width="2"
                fill="none"
                fill-rule="evenodd"
                stroke-dasharray="76,4,70"
                opacity=".191"
              />
            </g>

            <!-- blue 5099 -->
            <g width="366" height="366" viewBox="0 0 366 366">
              <circle
                class="hero-logo-circle10"
                stroke="#659CC8"
                stroke-width="2"
                cx="183"
                cy="183"
                r="181"
                fill="none"
                fill-rule="evenodd"
                stroke-dasharray="2,45,161"
              />
            </g>
          </svg>
        </g>
      </svg>